<svg xmlns="http://www.w3.org/2000/svg" viewBox="0 0 1200 800" role="img" aria-labelledby="title desc">
  <title id="title">El Cuchumá</title>
  <desc id="desc">Ilustración documental sobria para la portada inicial del portal.</desc>
  <rect width="1200" height="800" fill="#f4efe6"/>
  <path d="M0 590 C160 520 280 530 430 485 C560 445 670 350 805 365 C955 382 1020 505 1200 455 L1200 800 L0 800 Z" fill="#7d725f"/>
  <path d="M0 640 C175 575 310 580 455 548 C610 513 708 425 840 435 C985 447 1050 560 1200 525 L1200 800 L0 800 Z" fill="#4c5d50"/>
  <path d="M156 622 L246 610 L310 650 L424 628 L522 665 L612 640 L720 676 L844 642 L942 674 L1062 644 L1200 682 L1200 800 L0 800 L0 690 Z" fill="#24382d"/>
  <circle cx="1035" cy="150" r="58" fill="#d8a650"/>
  <path d="M115 210 C210 184 272 205 336 176 C430 133 506 154 588 129 C688 98 805 116 903 88" fill="none" stroke="#806f58" stroke-width="8" stroke-linecap="round" opacity=".5"/>
  <path d="M135 258 C225 234 318 252 399 220 C474 191 548 203 640 181 C716 163 803 168 905 143" fill="none" stroke="#806f58" stroke-width="5" stroke-linecap="round" opacity=".35"/>
</svg>
